<?xml version="1.0" standalone="no"?>
<!DOCTYPE svg PUBLIC "-//W3C//DTD SVG 1.1//EN" "http://www.w3.org/Graphics/SVG/1.1/DTD/svg11.dtd" >
<svg xmlns="http://www.w3.org/2000/svg">
<metadata></metadata>
<defs>
<font id="gobold_thin_lightregular" horiz-adv-x="975" >
<font-face units-per-em="2048" ascent="1638" descent="-410" />
<missing-glyph horiz-adv-x="403" />
<glyph horiz-adv-x="0" />
<glyph unicode="&#xd;" horiz-adv-x="508" />
<glyph unicode=" "  horiz-adv-x="403" />
<glyph unicode="&#x09;" horiz-adv-x="403" />
<glyph unicode="&#xa0;" horiz-adv-x="403" />
<glyph unicode="!" horiz-adv-x="480" d="M120 -3v238h240v-238h-240zM120 1965h240l-23 -1454h-195z" />
<glyph unicode="&#x22;" horiz-adv-x="824" d="M120 1930h203l-31 -586h-141zM501 1930h203l-30 -586h-142z" />
<glyph unicode="#" horiz-adv-x="1313" d="M80 768v57h206l75 376h-236v57h248l141 708h143l-140 -708h365l140 708h145l-140 -708h206v-57h-219l-74 -376h248v-57h-260l-153 -771h-144l153 771h-365l-153 -771h-145l153 771h-194zM430 825h366l75 376h-366z" />
<glyph unicode="$" horiz-adv-x="995" d="M120 381v226h195v-226q0 -193 182 -193t182 193v236q0 176 -301 392q-258 185 -258 445v195q0 334 306 382v179h142v-179q307 -48 307 -382v-227h-196v227q0 192 -181 193h-2q-181 0 -181 -193v-189q0 -165 302 -380q258 -185 258 -438v-261q0 -334 -307 -382v-246h-142 v246q-306 49 -306 382z" />
<glyph unicode="%" horiz-adv-x="1585" d="M125 1082v745q0 203 201 203q199 0 199 -203v-745q0 -203 -199 -203q-201 0 -201 203zM196 1082q0 -133 130 -133q127 0 127 133v745q0 135 -127 135h-3q-127 0 -127 -135v-745zM386 -5l725 1970h74l-724 -1970h-75zM1060 199v745q0 203 199 203q201 0 201 -203v-745 q0 -203 -201 -203h-2q-197 0 -197 203zM1132 199q0 -135 127 -135q130 0 130 135v745q0 134 -129 134h-2q-126 0 -126 -134v-745z" />
<glyph unicode="&#x26;" horiz-adv-x="1136" d="M120 380v346q0 172 225 288q-225 116 -225 288v312q0 357 287 382q43 3 89 3q39 0 79 -2q300 -21 300 -383v-37h-195v37q0 171 -117 191q-31 4 -63 4q-27 0 -57 -3q-128 -15 -128 -192v-312q0 -134 114 -181q30 -11 66 -13h185v142h195v-142h191v-190h-191v-538 q0 -368 -314 -383q-34 -1 -68 -1q-61 0 -106 5q-267 33 -267 379zM315 380q0 -146 77 -178q35 -16 102 -16q16 0 31 1q155 6 155 193v538h-184q-37 -1 -67 -13q-114 -44 -114 -179v-346z" />
<glyph unicode="'" horiz-adv-x="443" d="M120 1930h203l-31 -586h-141z" />
<glyph unicode="(" horiz-adv-x="462" d="M120 120v1724q0 378 312 383v-142q-117 -3 -117 -192v-1823q0 -188 117 -191v-143q-312 5 -312 384z" />
<glyph unicode=")" horiz-adv-x="462" d="M30 -121q117 3 117 191v1823q0 189 -117 192v142q312 -5 312 -383v-1724q0 -379 -312 -384v143z" />
<glyph unicode="*" horiz-adv-x="952" d="M115 1675q0 19 7 47q14 56 39 65q20 8 61 -9q48 -23 250 -154q-249 -11 -299 -3q-46 8 -55 32q-3 9 -3 22zM214 1384q0 21 30 53q38 38 230 182q-75 -237 -100 -281q-23 -41 -49 -41q-24 0 -63 27q-48 33 -48 60zM408 1918q-3 47 18 61q19 13 62 13h6q58 -1 73 -23 q12 -18 4 -61q-10 -53 -90 -279q-69 239 -73 289zM484 1618q213 -129 250 -163q35 -32 28 -58q-5 -23 -40 -54q-44 -39 -70 -33q-20 5 -45 41q-28 46 -123 267zM494 1624q202 131 250 153q41 17 60 10q26 -9 40 -66q7 -28 7 -47q0 -12 -3 -21q-9 -24 -56 -32q-50 -8 -298 3z " />
<glyph unicode="+" horiz-adv-x="989" d="M120 911v141h304v303h142v-303h303v-141h-303v-303h-142v303h-304z" />
<glyph unicode="," horiz-adv-x="506" d="M120 52v240h266v-244l-100 -342h-93l62 346h-135z" />
<glyph unicode="-" horiz-adv-x="721" d="M50 887v141h621v-141h-621z" />
<glyph unicode="." horiz-adv-x="480" d="M120 19v239h240v-239h-240z" />
<glyph unicode="/" horiz-adv-x="657" d="M60 -3l393 1969h144l-393 -1969h-144z" />
<glyph unicode="0" horiz-adv-x="995" d="M120 347v1268q0 384 377 384q378 0 378 -384v-1268q0 -383 -378 -383q-377 0 -377 383zM315 347q0 -192 182 -192q183 0 183 192v1268q0 192 -182 192h-2q-181 0 -181 -192v-1268z" />
<glyph unicode="1" horiz-adv-x="1015" d="M130 -3v190h281v1588h-281v190h475v-1778h280v-190h-755z" />
<glyph unicode="2" horiz-adv-x="1015" d="M130 -5v393q0 254 257 439q302 214 303 380v407q0 193 -181 193h-2q-182 0 -182 -193v-225h-195v225q0 385 377 385q378 0 378 -385v-414q0 -259 -258 -445q-302 -215 -302 -392v-177h560v-191h-755z" />
<glyph unicode="3" horiz-adv-x="1015" d="M130 347v227h195v-227q0 -192 183 -192q182 0 182 192v341q3 187 -196 197h-94v192h97q196 30 193 223v315q0 192 -182 192q-183 0 -183 -192v-227h-195v227q0 383 378 384q377 0 377 -384v-325q0 -197 -226 -313q226 -115 226 -289v-341q0 -384 -377 -384 q-378 1 -378 384z" />
<glyph unicode="4" horiz-adv-x="1024" d="M52 505v200l507 1260h295v-1270h115v-190h-115v-508h-195v508h-607zM218 695h441v1118z" />
<glyph unicode="5" horiz-adv-x="1015" d="M130 347v194h195v-194q0 -192 182 -192q183 0 183 192v589q0 144 -78 177q-33 17 -102 17q-16 0 -31 -1q-133 -6 -151 -128l-1 -37h-195l40 1003h713v-191h-525l-27 -616q134 148 264 154q12 0 30 -3q134 -11 202 -104q56 -78 56 -271v-589q0 -383 -378 -383 q-377 0 -377 383z" />
<glyph unicode="6" horiz-adv-x="1015" d="M130 347v1268q0 384 377 384q378 0 378 -384v-226h-195v226q0 192 -182 192h-2q-181 0 -181 -192v-621q156 140 258 140q20 0 41 -2q124 -13 191 -86q70 -75 70 -287v-412q0 -383 -378 -383q-377 0 -377 383zM325 347q0 -192 182 -192q183 0 183 192v412q0 145 -78 178 q-34 15 -102 15q-16 0 -31 -1q-154 -6 -154 -192v-412z" />
<glyph unicode="7" horiz-adv-x="1016" d="M121 1775v190h780v-155l-408 -1813h-200l399 1778h-571z" />
<glyph unicode="8" horiz-adv-x="1015" d="M130 347v341q0 174 225 289q-225 116 -225 289v349q0 383 378 384q377 0 377 -384v-349q0 -173 -226 -289q226 -115 226 -289v-341q0 -384 -377 -384q-378 1 -378 384zM325 347q0 -192 183 -192q182 0 182 192v339q3 197 -183 197q-185 0 -182 -197v-339zM325 1266 q-3 -190 154 -196q16 -1 34 -1q66 0 102 14q78 36 75 183v349q0 192 -182 192q-183 0 -183 -192v-349z" />
<glyph unicode="9" horiz-adv-x="1015" d="M130 347v227h195v-227q0 -191 182 -192h2q181 0 181 192v622q-157 -141 -261 -141q-18 0 -37 2q-124 13 -192 86q-70 76 -70 287v412q0 383 378 384q377 0 377 -384v-1268q0 -383 -378 -383q-377 0 -377 383zM325 1203q0 -144 77 -178q35 -14 100 -14q17 0 32 1 q156 5 156 191v412q0 192 -182 192q-183 0 -183 -192v-412z" />
<glyph unicode=":" horiz-adv-x="479" d="M120 14v240h239v-240h-239zM120 1076v239h239v-239h-239z" />
<glyph unicode=";" horiz-adv-x="506" d="M120 24v239h266v-244l-100 -341h-93l62 346h-135zM120 1085v239h240v-239h-240z" />
<glyph unicode="&#x3c;" horiz-adv-x="989" d="M120 851v245l749 420v-170l-661 -369l661 -360v-170z" />
<glyph unicode="=" horiz-adv-x="989" d="M120 666v141h749v-141h-749zM120 1154v142h749v-142h-749z" />
<glyph unicode="&#x3e;" horiz-adv-x="989" d="M120 447v170l655 360l-655 369v170l749 -420v-245z" />
<glyph unicode="?" horiz-adv-x="995" d="M120 1389v225q0 385 378 385q377 0 377 -385v-208q0 -243 -195 -436q-225 -225 -225 -401v-59h-195v84q0 238 195 431q225 223 225 388v201q0 193 -181 193h-2q-182 0 -182 -193v-225h-195zM242 -5v240h240v-240h-240z" />
<glyph unicode="@" horiz-adv-x="1448" d="M130 573v846q0 591 595 591q593 0 593 -577v-61h-1v-135q0 -236 -230 -236h-168v-415q0 -236 -230 -236q-231 0 -231 236v271q0 235 231 235h139v328q0 144 -138 144h-2q-137 0 -137 -144v-21h-93v21q0 235 231 235q230 0 230 -235v-328h168q137 0 137 145v196 q0 488 -499 488q-501 0 -501 -502v-846q0 -488 501 -488q499 0 499 494h94q0 -583 -593 -583q-595 0 -595 577zM534 586q0 -145 138 -145t138 145v415l-138 1q-138 0 -138 -145v-271z" />
<glyph unicode="A" horiz-adv-x="988" d="M40 -3l89 672l204 1296h321l203 -1292l91 -676h-198l-58 439h-396l-59 -439h-197zM319 628h347l-173 1170z" />
<glyph unicode="B" horiz-adv-x="985" d="M130 -3v1968h409q346 -1 346 -384v-311q0 -173 -225 -289q225 -116 225 -289v-312q0 -382 -366 -383h-389zM325 187h183q182 0 182 193v312q0 136 -114 181q-32 12 -105 12h-146v-698zM325 1077h146q71 0 105 11q114 48 114 182v311q0 194 -182 194h-183v-698z" />
<glyph unicode="C" horiz-adv-x="965" d="M110 347v1268q0 383 377 383q378 0 378 -383v-227h-195v227q0 191 -182 192h-2q-181 0 -181 -192v-1268q0 -192 182 -192q183 0 183 192v227h195v-227q0 -383 -378 -384q-377 0 -377 384z" />
<glyph unicode="D" horiz-adv-x="995" d="M130 -3v1968h409q346 -1 346 -384v-1201q0 -382 -366 -383h-389zM325 187h183q182 0 182 193v1201q0 194 -182 194h-183v-1588z" />
<glyph unicode="E" horiz-adv-x="881" d="M130 -3v1968h671v-190h-476v-698h410v-192h-410v-698h476v-190h-671z" />
<glyph unicode="F" horiz-adv-x="861" d="M130 -3v1968h671v-190h-476v-698h410v-192h-410v-888h-195z" />
<glyph unicode="G" d="M110 347v1268q0 383 377 383q378 0 378 -383v-227h-195v227q0 191 -182 192h-2q-181 0 -181 -192v-1268q0 -192 182 -192q183 0 183 192v538h-151v192h346v-730q0 -383 -378 -384q-377 0 -377 384z" />
<glyph unicode="H" horiz-adv-x="1015" d="M130 -3v1968h195v-888h365v888h195v-1968h-195v888h-365v-888h-195z" />
<glyph unicode="I" horiz-adv-x="465" d="M135 -3v1968h195v-1968h-195z" />
<glyph unicode="J" horiz-adv-x="915" d="M30 348v70h195v-70q0 -193 183 -193q182 0 182 193v1619h195v-1619q0 -385 -377 -385q-378 1 -378 385z" />
<glyph unicode="K" horiz-adv-x="979" d="M130 -3v1968h195v-943l407 943h207l-423 -984l423 -984h-207l-407 931v-931h-195z" />
<glyph unicode="L" horiz-adv-x="841" d="M130 -3v1968h195v-1778h476v-190h-671z" />
<glyph unicode="M" horiz-adv-x="1453" d="M130 -3v1968h206l393 -1586l389 1586h205v-1968h-182v1591l-349 -1591h-119l-357 1578v-1578h-186z" />
<glyph unicode="N" horiz-adv-x="1015" d="M130 -3v1968h205l377 -1598v1594l173 3v-1967h-205l-366 1563v-1563h-184z" />
<glyph unicode="O" d="M110 347v1268q0 383 377 383q378 0 378 -383v-1268q0 -383 -378 -384q-377 0 -377 384zM305 347q0 -192 182 -192q183 0 183 192v1268q0 191 -182 192h-2q-181 0 -181 -192v-1268z" />
<glyph unicode="P" horiz-adv-x="939" d="M130 -3v1968h384q345 -1 345 -384v-311q0 -283 -250 -364q-61 -21 -183 -21h-101v-888h-195zM325 1077h120q72 0 105 11q114 48 114 182v311q0 194 -181 194h-158v-698z" />
<glyph unicode="Q" d="M110 356v1268q0 383 377 383q378 0 378 -383v-1268q0 -344 -331 -385q12 -165 331 -167v-146q-201 0 -289 47q-101 51 -104 266q-362 27 -362 385zM305 356q0 -193 182 -193q183 0 183 193v1268q0 191 -182 192h-2q-181 0 -181 -192v-1268z" />
<glyph unicode="R" horiz-adv-x="969" d="M130 -3v1968h384q345 -1 345 -384v-311q0 -238 -249 -330l329 -943h-216l-272 917l-126 -7v-910h-195zM325 1077h120q72 0 105 11q114 48 114 182v311q0 194 -181 194h-158v-698z" />
<glyph unicode="S" d="M110 347v227h195v-227q0 -192 183 -192q182 0 182 192v236q0 177 -302 393q-258 185 -258 445v194q0 383 377 383q378 0 378 -383v-227h-195v227q0 191 -182 192h-2q-181 0 -181 -192v-188q0 -164 302 -381q258 -184 258 -437v-262q0 -384 -377 -384q-378 1 -378 384z " />
<glyph unicode="T" horiz-adv-x="855" d="M50 1775v190h755v-190h-280v-1778h-194v1778h-281z" />
<glyph unicode="U" horiz-adv-x="995" d="M120 348v1619h195v-1619q0 -193 182 -193q183 0 183 193v1619h195v-1619q0 -384 -378 -385q-377 0 -377 385z" />
<glyph unicode="V" horiz-adv-x="988" d="M40 1965h197l256 -1767l257 1767h198l-91 -676l-203 -1292h-321l-204 1294z" />
<glyph unicode="W" horiz-adv-x="1707" d="M40 1965h196l257 -1764l257 1764h206l257 -1765l257 1765h197l-90 -676l-203 -1292h-319l-201 1383l-200 -1383h-321l-204 1294z" />
<glyph unicode="X" horiz-adv-x="949" d="M40 -3l326 984l-326 984h192l230 -695l233 695h192l-329 -984l329 -984h-192l-233 695l-230 -695h-192z" />
<glyph unicode="Y" horiz-adv-x="982" d="M40 1965h205l245 -970l245 970h207l-354 -1140v-828h-195v828z" />
<glyph unicode="Z" horiz-adv-x="817" d="M80 -3v120l421 1658h-408v190h626v-120l-422 -1658h440v-190h-657z" />
<glyph unicode="[" horiz-adv-x="465" d="M130 -264v2491h305v-140h-163v-2210h163v-141h-305z" />
<glyph unicode="\" horiz-adv-x="657" d="M60 1966h144l393 -1969h-144z" />
<glyph unicode="]" horiz-adv-x="465" d="M30 -123h163v2210h-163v140h305v-2491h-305v141z" />
<glyph unicode="^" horiz-adv-x="1052" d="M100 1202l326 747h200l326 -747h-154l-273 624l-270 -624h-155z" />
<glyph unicode="_" horiz-adv-x="986" d="M0 -153h986v-119h-986v119z" />
<glyph unicode="`" horiz-adv-x="663" d="M130 2000v31h186l217 -199h-141z" />
<glyph unicode="a" horiz-adv-x="988" d="M40 -3l89 591l204 1141h321l203 -1137l91 -595h-198l-58 387h-396l-59 -387h-197zM319 552h347l-173 1030z" />
<glyph unicode="b" horiz-adv-x="985" d="M130 -3v1732h409q346 -1 346 -338v-274q0 -152 -225 -254q225 -102 225 -254v-275q0 -336 -366 -337h-389zM325 165h183q182 0 182 169v275q0 119 -114 159q-32 11 -105 11h-146v-614zM325 947h146q71 0 105 10q114 42 114 160v274q0 170 -182 170h-183v-614z" />
<glyph unicode="c" horiz-adv-x="965" d="M110 301v1116q0 337 377 337q378 0 378 -337v-200h-195v200q0 168 -182 169h-2q-181 0 -181 -169v-1116q0 -169 182 -169q183 0 183 169v200h195v-200q0 -337 -378 -338q-377 0 -377 338z" />
<glyph unicode="d" horiz-adv-x="995" d="M130 -3v1732h409q346 -1 346 -338v-1057q0 -336 -366 -337h-389zM325 165h183q182 0 182 169v1057q0 170 -182 170h-183v-1396z" />
<glyph unicode="e" horiz-adv-x="881" d="M130 -3v1732h671v-168h-476v-614h410v-168h-410v-614h476v-168h-671z" />
<glyph unicode="f" horiz-adv-x="861" d="M130 -3v1732h671v-168h-476v-614h410v-168h-410v-782h-195z" />
<glyph unicode="g" d="M110 301v1116q0 337 377 337q378 0 378 -337v-200h-195v200q0 168 -182 169h-2q-181 0 -181 -169v-1116q0 -169 182 -169q183 0 183 169v473h-151v169h346v-642q0 -337 -378 -338q-377 0 -377 338z" />
<glyph unicode="h" horiz-adv-x="1015" d="M130 -3v1732h195v-782h365v782h195v-1732h-195v782h-365v-782h-195z" />
<glyph unicode="i" horiz-adv-x="465" d="M135 -3v1732h195v-1732h-195z" />
<glyph unicode="j" horiz-adv-x="915" d="M30 302v62h195v-62q0 -170 183 -170q182 0 182 170v1424h195v-1424q0 -339 -377 -339q-378 1 -378 339z" />
<glyph unicode="k" horiz-adv-x="979" d="M130 -3v1732h195v-830l407 830h207l-423 -866l423 -866h-207l-407 819v-819h-195z" />
<glyph unicode="l" horiz-adv-x="841" d="M130 -3v1732h195v-1564h476v-168h-671z" />
<glyph unicode="m" horiz-adv-x="1453" d="M130 -3v1732h206l393 -1396l389 1396h205v-1732h-182v1400l-349 -1400h-119l-357 1388v-1388h-186z" />
<glyph unicode="n" horiz-adv-x="1015" d="M130 -3v1732h205l377 -1406v1402l173 3v-1731h-205l-366 1376v-1376h-184z" />
<glyph unicode="o" d="M110 301v1116q0 337 377 337q378 0 378 -337v-1116q0 -337 -378 -338q-377 0 -377 338zM305 301q0 -169 182 -169q183 0 183 169v1116q0 168 -182 169h-2q-181 0 -181 -169v-1116z" />
<glyph unicode="p" horiz-adv-x="939" d="M130 -3v1732h384q345 -1 345 -338v-274q0 -249 -250 -321q-61 -17 -183 -17h-101v-782h-195zM325 947h120q72 0 105 10q114 42 114 160v274q0 170 -181 170h-158v-614z" />
<glyph unicode="q" d="M110 272v1116q0 337 377 337q378 0 378 -337v-1116q0 -303 -331 -338q12 -146 331 -148v-128q-201 0 -289 41q-101 45 -104 235q-362 23 -362 338zM305 272q0 -170 182 -170q183 0 183 170v1116q0 168 -182 169h-2q-181 0 -181 -169v-1116z" />
<glyph unicode="r" horiz-adv-x="969" d="M130 -3v1732h384q345 -1 345 -338v-274q0 -209 -249 -290l329 -830h-216l-272 807l-126 -6v-801h-195zM325 947h120q72 0 105 10q114 42 114 160v274q0 170 -181 170h-158v-614z" />
<glyph unicode="s" d="M110 301v200h195v-200q0 -169 183 -169q182 0 182 169v208q0 155 -302 345q-258 163 -258 392v171q0 337 377 337q378 0 378 -337v-200h-195v200q0 168 -182 169h-2q-181 0 -181 -169v-166q0 -144 302 -335q258 -162 258 -385v-230q0 -338 -377 -338q-378 1 -378 338z " />
<glyph unicode="t" horiz-adv-x="855" d="M50 1561v168h755v-168h-280v-1564h-194v1564h-281z" />
<glyph unicode="u" horiz-adv-x="995" d="M120 302v1424h195v-1424q0 -170 182 -170q183 0 183 170v1424h195v-1424q0 -338 -378 -339q-377 0 -377 339z" />
<glyph unicode="v" horiz-adv-x="988" d="M40 1729h197l256 -1555l257 1555h198l-91 -595l-203 -1137h-321l-204 1139z" />
<glyph unicode="w" horiz-adv-x="1707" d="M40 1729h196l257 -1552l257 1552h206l257 -1553l257 1553h197l-90 -595l-203 -1137h-319l-201 1217l-200 -1217h-321l-204 1139z" />
<glyph unicode="x" horiz-adv-x="949" d="M40 -3l326 866l-326 866h192l230 -612l233 612h192l-329 -866l329 -866h-192l-233 612l-230 -612h-192z" />
<glyph unicode="y" horiz-adv-x="982" d="M40 1729h205l245 -854l245 854h207l-354 -1003v-729h-195v729z" />
<glyph unicode="z" horiz-adv-x="817" d="M80 -3v106l421 1458h-408v168h626v-106l-422 -1458h440v-168h-657z" />
<glyph unicode="{" horiz-adv-x="469" d="M10 910v144q117 3 117 191v599q0 378 312 383v-142q-117 -3 -117 -192v-598q0 -192 -99 -313q99 -122 99 -314v-598q0 -188 117 -191v-143q-312 5 -312 384v598q0 190 -117 192z" />
<glyph unicode="|" horiz-adv-x="421" d="M140 -349v2661h141v-2661h-141z" />
<glyph unicode="}" horiz-adv-x="469" d="M30 -121q117 3 117 191v598q0 192 99 314q-99 121 -99 313v598q0 189 -117 192v142q312 -5 312 -383v-599q0 -188 117 -191v-144q-117 -2 -117 -192v-598q0 -379 -312 -384v143z" />
<glyph unicode="~" horiz-adv-x="1005" d="M100 952l29 45q89 139 201 139h10q75 -5 206 -102q85 -64 149 -64q59 0 95 44l32 42l83 -66l-32 -42q-79 -101 -176 -101h-10q-76 5 -204 101q-94 71 -123 76q-9 2 -21 2q-65 0 -120 -87l-29 -44z" />
<glyph unicode="&#xa1;" horiz-adv-x="580" d="M120 -236l23 1454h195l22 -1454h-240zM120 1494v238h240v-238h-240z" />
<glyph unicode="&#xa2;" horiz-adv-x="999" d="M120 309v1117q0 333 377 333q125 0 262 -57l79 261l41 -4l-88 -288q84 -100 84 -245v-193h-217l-317 -1034q71 -65 156 -65q183 0 183 175v194h195v-194q0 -331 -378 -331q-94 0 -213 33l-107 -349l-41 2l112 366q-128 101 -128 279zM315 248l365 1195q-17 158 -182 159 q-183 0 -183 -176v-1178z" />
<glyph unicode="&#xa3;" horiz-adv-x="1079" d="M60 -5v191h20q184 0 184 194v585h-204v64h204v585q0 385 376 385q379 0 379 -385v-225h-195v225q0 193 -182 193h-3q-180 0 -180 -193v-585h350v-64h-350v-438q0 -172 -109 -341h585v-191h-875z" />
<glyph unicode="&#xa4;" horiz-adv-x="1315" d="M130 552l160 158q-9 73 -9 131v282q0 49 7 113l-158 157l107 107l103 -105q124 112 318 112q193 0 319 -112l103 105l105 -107l-158 -157q10 -65 10 -113v-282q0 -56 -12 -131l160 -158l-105 -107l-114 113q-124 -100 -308 -100q-185 0 -310 99l-110 -113zM476 841 q0 -192 182 -192q184 0 184 192v282q0 192 -183 193h-2q-181 0 -181 -193v-282z" />
<glyph unicode="&#xa5;" horiz-adv-x="1102" d="M100 1965h205l245 -968l245 968h207l-322 -1041h245v-63h-277v-273h277v-63h-277v-528h-195v528h-276v63h276v273h-276v63h244z" />
<glyph unicode="&#xa6;" horiz-adv-x="421" d="M140 3v724h141v-724h-141zM140 1045v681h141v-681h-141z" />
<glyph unicode="&#xa7;" horiz-adv-x="995" d="M120 913q0 251 259 352q-259 174 -259 419q0 324 373 324q356 0 356 -324v-54h-195v54q0 173 -170 173q-169 0 -169 -173q0 -221 306 -394q254 -144 254 -454q0 -259 -338 -337q338 -208 338 -490q0 -350 -375 -350q-356 0 -356 350v60h195v-60q0 -183 172 -183 q168 0 168 183q0 231 -305 417q-254 152 -254 487zM296 856q0 -204 193 -204q194 0 194 204v43q0 203 -193 205h-2q-192 0 -192 -205v-43z" />
<glyph unicode="&#xa8;" horiz-adv-x="831" d="M130 1852v150h152v-150h-152zM548 1852v150h153v-150h-153z" />
<glyph unicode="&#xa9;" horiz-adv-x="1428" d="M120 573v846q0 591 594 591t594 -577v-847q0 -590 -594 -590t-594 577zM214 573q0 -488 500 -488t500 501v847q0 488 -499 488q-501 0 -501 -502v-846zM482 582v842q0 238 234 238t234 -238v-28h-96v28q0 146 -137 147q-140 0 -140 -147v-842q0 -147 139 -147 q138 0 138 147v27h96v-27q0 -239 -234 -239t-234 239z" />
<glyph unicode="&#xaa;" horiz-adv-x="679" d="M35 553l59 355l135 684h212l134 -682l60 -357h-131l-38 232h-262l-39 -232h-130zM46 685v119h493v-119h-493zM220 886h229l-115 618z" />
<glyph unicode="&#xab;" horiz-adv-x="1331" d="M130 1002l458 418v-207l-265 -224l265 -218v-195zM619 1002l458 418v-207l-265 -224l265 -218v-195z" />
<glyph unicode="&#xac;" horiz-adv-x="1009" d="M130 919v141h749v-444h-141v303h-608z" />
<glyph unicode="&#xad;" horiz-adv-x="721" d="M50 887v141h621v-141h-621z" />
<glyph unicode="&#xae;" horiz-adv-x="1428" d="M120 573v846q0 591 594 591t594 -577v-847q0 -590 -594 -590t-594 577zM214 573q0 -488 500 -488t500 501v847q0 488 -499 488q-501 0 -501 -502v-846zM477 366v1275l242 -2h13q212 0 212 -236v-208q0 -104 -171 -192q171 -88 171 -193v-444h-94v444q0 100 -86 136 q-25 11 -78 11h-114v-591h-95zM572 1049h114q53 0 78 11q86 34 86 135v208q0 146 -138 146h-140v-500z" />
<glyph unicode="&#xaf;" horiz-adv-x="1172" d="M0 1798v119h1172v-119h-1172z" />
<glyph unicode="&#xb0;" horiz-adv-x="808" d="M130 1741q0 273 273 273q275 0 275 -273q0 -274 -275 -274q-273 0 -273 274zM219 1741q0 -186 184 -186q186 0 186 186q0 185 -186 185q-184 0 -184 -185z" />
<glyph unicode="&#xb1;" horiz-adv-x="989" d="M120 177v121h747v-121h-747zM120 922v143h304v303h142v-303h303v-143h-303v-303h-142v303h-304z" />
<glyph unicode="&#xb2;" horiz-adv-x="629" d="M100 841v224q0 144 146 250q173 122 174 218v232q0 112 -105 112h-1q-105 0 -105 -112v-127h-109v127q0 219 214 219q215 0 215 -219v-236q0 -148 -147 -254q-173 -123 -173 -225v-102h320v-107h-429z" />
<glyph unicode="&#xb3;" horiz-adv-x="634" d="M100 1038v130h109v-131q0 -114 108 -114t108 114v219q0 85 -45 106q-22 9 -58 9h-28v107h41q32 0 52 12q38 23 38 100v179q0 84 -45 106q-22 9 -60 9q-11 0 -20 -2q-91 -3 -91 -113v-129h-109v130q0 155 84 197q63 34 129 34q63 0 128 -29q93 -41 93 -202v-181 q0 -99 -130 -167q130 -67 130 -166v-218q0 -140 -67 -188q-44 -30 -141 -34h-15q-87 0 -132 27q-79 45 -79 195z" />
<glyph unicode="&#xb4;" horiz-adv-x="663" d="M130 1832l217 199h186v-31l-262 -168h-141z" />
<glyph unicode="&#xb5;" horiz-adv-x="1005" d="M130 -330v1968h195v-1274q0 -191 182 -191q183 0 183 192v1273h195v-1273q0 -346 -291 -378q-18 -3 -34 -3q-82 0 -235 100v-414h-195z" />
<glyph unicode="&#xb6;" horiz-adv-x="1119" d="M100 1329v374q0 184 55 229q45 34 226 34h608v-1969h-108v1861h-340v-1861h-108v1079q-239 0 -281 30q-52 39 -52 223z" />
<glyph unicode="&#xb7;" horiz-adv-x="520" d="M117 733v203h204v-203h-204z" />
<glyph unicode="&#xb8;" horiz-adv-x="584" d="M169 -223h75q0 -56 64 -56q63 0 63 57v60q0 58 -60 61h-3q-48 0 -57 -22h-72l24 123h69l-28 -92q53 31 97 31q8 0 18 -2q49 -7 68 -31t19 -68v-60q0 -93 -98 -101q-17 -2 -39 -2q-12 0 -23 1q-117 3 -117 101z" />
<glyph unicode="&#xb9;" horiz-adv-x="1028" d="M130 841v104h159v902h-159v104h265v-1006h159v-104h-424z" />
<glyph unicode="&#xba;" horiz-adv-x="718" d="M56 649v119h493v-119h-493zM97 727v669q0 202 248 202q250 0 250 -202v-669q0 -203 -250 -203q-248 0 -248 203zM225 727q0 -102 120 -102q121 0 121 102v669q0 101 -120 102h-1q-120 0 -120 -102v-669z" />
<glyph unicode="&#xbb;" horiz-adv-x="1331" d="M130 576v195l266 218l-266 224v207l458 -418zM619 576v195l266 218l-266 224v207l458 -418z" />
<glyph unicode="&#xbc;" horiz-adv-x="1597" d="M120 856v104h159v902h-159v104h265v-1006h159v-104h-424zM464 -4l726 1971h115l-725 -1971h-116zM985 282v109l284 708h163v-714h65v-103h-65v-286h-106v286h-341zM1074 385h252v639z" />
<glyph unicode="&#xbd;" horiz-adv-x="1678" d="M60 856v104h159v902h-159v104h265v-1006h159v-104h-424zM404 -4l726 1971h115l-725 -1971h-116zM1149 -4v224q0 144 146 249q173 122 174 219v232q0 112 -105 112h-1q-105 0 -105 -112v-128h-109v128q0 218 214 218q215 0 215 -218v-236q0 -148 -147 -254 q-173 -123 -173 -225v-103h320v-106h-429z" />
<glyph unicode="&#xbe;" horiz-adv-x="1535" d="M100 1053v129h109v-130q0 -114 108 -114t108 114v218q0 85 -45 107q-22 8 -58 8h-28v108h41q32 0 52 11q38 23 38 101v178q0 85 -45 107q-22 8 -60 8q-11 0 -20 -1q-91 -3 -91 -114v-128h-109v129q0 155 84 198q63 33 129 33q63 0 128 -29q93 -40 93 -202v-180 q0 -100 -130 -167q130 -67 130 -167v-217q0 -140 -67 -189q-44 -30 -141 -33h-15q-87 0 -132 27q-79 44 -79 195zM403 -5l726 1971h115l-725 -1971h-116zM924 281v110l283 707h163v-714h65v-103h-65v-286h-106v286h-340zM1013 384h251v640z" />
<glyph unicode="&#xbf;" horiz-adv-x="995" d="M120 110v208q0 243 195 436q225 225 225 401v59h195v-84q0 -238 -195 -431q-225 -223 -225 -388v-201q0 -193 181 -193h2q182 0 182 193v225h195v-225q0 -385 -378 -385q-377 0 -377 385zM513 1489v240h240v-240h-240z" />
<glyph unicode="&#xc0;" horiz-adv-x="988" d="M40 -3l89 672l204 1296h321l203 -1292l91 -676h-198l-58 439h-396l-59 -439h-197zM225 2233v31h186l217 -199h-141zM319 628h347l-173 1170z" />
<glyph unicode="&#xc1;" horiz-adv-x="988" d="M40 -3l89 672l204 1296h321l203 -1292l91 -676h-198l-58 439h-396l-59 -439h-197zM319 628h347l-173 1170zM360 2065l217 199h186v-31l-262 -168h-141z" />
<glyph unicode="&#xc2;" horiz-adv-x="988" d="M40 -3l89 672l204 1296h321l203 -1292l91 -676h-198l-58 439h-396l-59 -439h-197zM167 2066l202 198h249l203 -198h-177l-151 102l-150 -102h-176zM319 628h347l-173 1170z" />
<glyph unicode="&#xc3;" horiz-adv-x="988" d="M40 -3l89 672l204 1296h321l203 -1292l91 -676h-198l-58 439h-396l-59 -439h-197zM179 2090l23 46q61 124 153 129h6q61 0 163 -63q61 -39 104 -39q45 0 71 39l26 42l83 -55l-27 -44q-58 -93 -139 -97h-6q-60 0 -161 64q-73 46 -95 49h-7q-48 0 -85 -73l-22 -45zM319 628 h347l-173 1170z" />
<glyph unicode="&#xc4;" horiz-adv-x="988" d="M40 -3l89 672l204 1296h321l203 -1292l91 -676h-198l-58 439h-396l-59 -439h-197zM208 2085v150h152v-150h-152zM319 628h347l-173 1170zM626 2085v150h153v-150h-153z" />
<glyph unicode="&#xc5;" horiz-adv-x="988" d="M40 -3l89 672l204 1296h27q-41 44 -41 129q0 174 174 174q175 0 175 -174q0 -85 -42 -129h28l203 -1292l91 -676h-198l-58 439h-396l-59 -439h-197zM319 628h347l-173 1170zM379 2094q0 -115 114 -115q115 0 115 115q0 114 -115 114q-114 0 -114 -114z" />
<glyph unicode="&#xc6;" horiz-adv-x="1239" d="M40 -3l89 672l204 1296h826v-190h-476v-698h410v-192h-410v-698h476v-190h-671v439h-192l-59 -439h-197zM319 628h169v1136z" />
<glyph unicode="&#xc7;" horiz-adv-x="965" d="M110 347v1268q0 383 377 383q378 0 378 -383v-227h-195v227q0 191 -182 192h-2q-181 0 -181 -192v-1268q0 -192 182 -192q183 0 183 192v227h195v-227q0 -383 -378 -384q-24 0 -46 2l-17 -57q53 31 97 31q8 0 18 -2q49 -7 68 -31t19 -68v-60q0 -93 -98 -101 q-17 -2 -39 -2q-12 0 -23 1q-117 3 -117 101h75q0 -56 64 -56q63 0 63 57v60q0 58 -60 61h-3q-48 0 -57 -22h-72l19 96q-268 50 -268 374z" />
<glyph unicode="&#xc8;" horiz-adv-x="881" d="M130 -3v1968h671v-190h-476v-698h410v-192h-410v-698h476v-190h-671zM197 2233v31h186l217 -199h-141z" />
<glyph unicode="&#xc9;" horiz-adv-x="881" d="M130 -3v1968h671v-190h-476v-698h410v-192h-410v-698h476v-190h-671zM331 2065l217 199h186v-31l-262 -168h-141z" />
<glyph unicode="&#xca;" horiz-adv-x="881" d="M130 -3v1968h671v-190h-476v-698h410v-192h-410v-698h476v-190h-671zM139 2066l202 198h249l203 -198h-177l-151 102l-150 -102h-176z" />
<glyph unicode="&#xcb;" horiz-adv-x="881" d="M130 -3v1968h671v-190h-476v-698h410v-192h-410v-698h476v-190h-671zM180 2085v150h152v-150h-152zM598 2085v150h153v-150h-153z" />
<glyph unicode="&#xcc;" horiz-adv-x="465" d="M-36 2233v31h186l217 -199h-141zM135 -3v1968h195v-1968h-195z" />
<glyph unicode="&#xcd;" horiz-adv-x="465" d="M98 2065l217 199h186v-31l-262 -168h-141zM135 -3v1968h195v-1968h-195z" />
<glyph unicode="&#xce;" horiz-adv-x="465" d="M-95 2066l202 198h249l203 -198h-177l-151 102l-150 -102h-176zM135 -3v1968h195v-1968h-195z" />
<glyph unicode="&#xcf;" horiz-adv-x="465" d="M-53 2085v150h152v-150h-152zM135 -3v1968h195v-1968h-195zM365 2085v150h153v-150h-153z" />
<glyph unicode="&#xd0;" horiz-adv-x="1064" d="M58 922v119h131v924l409 -1q346 0 346 -383v-1201q0 -382 -346 -382q-9 0 -22 -1h-387v925h-131zM383 187h184q183 0 183 193v1201q0 194 -183 194h-184v-734h104v-119h-104v-735z" />
<glyph unicode="&#xd1;" horiz-adv-x="1015" d="M130 -3v1968h205l377 -1598v1594l173 3v-1967h-205l-366 1563v-1563h-184zM193 2090l23 46q61 124 153 129h6q61 0 163 -63q61 -39 104 -39q45 0 71 39l26 42l83 -55l-27 -44q-58 -93 -139 -97h-6q-60 0 -161 64q-73 46 -95 49h-7q-48 0 -85 -73l-22 -45z" />
<glyph unicode="&#xd2;" d="M110 347v1268q0 383 377 383q378 0 378 -383v-1268q0 -383 -378 -384q-377 0 -377 384zM219 2233v31h186l217 -199h-141zM305 347q0 -192 182 -192q183 0 183 192v1268q0 191 -182 192h-2q-181 0 -181 -192v-1268z" />
<glyph unicode="&#xd3;" d="M110 347v1268q0 383 377 383q378 0 378 -383v-1268q0 -383 -378 -384q-377 0 -377 384zM305 347q0 -192 182 -192q183 0 183 192v1268q0 191 -182 192h-2q-181 0 -181 -192v-1268zM353 2065l217 199h186v-31l-262 -168h-141z" />
<glyph unicode="&#xd4;" d="M110 347v1268q0 383 377 383q378 0 378 -383v-1268q0 -383 -378 -384q-377 0 -377 384zM160 2066l202 198h249l203 -198h-177l-151 102l-150 -102h-176zM305 347q0 -192 182 -192q183 0 183 192v1268q0 191 -182 192h-2q-181 0 -181 -192v-1268z" />
<glyph unicode="&#xd5;" d="M110 347v1268q0 383 377 383q378 0 378 -383v-1268q0 -383 -378 -384q-377 0 -377 384zM173 2090l23 46q61 124 153 129h6q61 0 163 -63q61 -39 104 -39q45 0 71 39l26 42l83 -55l-27 -44q-58 -93 -139 -97h-6q-60 0 -161 64q-73 46 -95 49h-7q-48 0 -85 -73l-22 -45z M305 347q0 -192 182 -192q183 0 183 192v1268q0 191 -182 192h-2q-181 0 -181 -192v-1268z" />
<glyph unicode="&#xd6;" d="M110 347v1268q0 383 377 383q378 0 378 -383v-1268q0 -383 -378 -384q-377 0 -377 384zM202 2085v150h152v-150h-152zM305 347q0 -192 182 -192q183 0 183 192v1268q0 191 -182 192h-2q-181 0 -181 -192v-1268zM620 2085v150h153v-150h-153z" />
<glyph unicode="&#xd7;" horiz-adv-x="941" d="M156 768l215 214l-214 214l100 101l215 -215l213 215l100 -102l-215 -213l215 -214l-100 -101l-214 214l-214 -215z" />
<glyph unicode="&#xd8;" d="M110 347v1268q0 383 377 383q58 0 107 -9l18 100h144l-27 -152q136 -92 136 -322v-1268q0 -383 -378 -384q-56 0 -103 8l-21 -119h-144l30 170q-139 92 -139 325zM305 342l256 1455q-32 10 -73 10h-2q-181 0 -181 -192v-1273zM418 164q30 -9 69 -9q183 0 183 192v1252z " />
<glyph unicode="&#xd9;" horiz-adv-x="995" d="M120 348v1619h195v-1619q0 -193 182 -193q183 0 183 193v1619h195v-1619q0 -384 -378 -385q-377 0 -377 385zM229 2233v31h186l217 -199h-141z" />
<glyph unicode="&#xda;" horiz-adv-x="995" d="M120 348v1619h195v-1619q0 -193 182 -193q183 0 183 193v1619h195v-1619q0 -384 -378 -385q-377 0 -377 385zM363 2065l217 199h186v-31l-262 -168h-141z" />
<glyph unicode="&#xdb;" horiz-adv-x="995" d="M120 348v1619h195v-1619q0 -193 182 -193q183 0 183 193v1619h195v-1619q0 -384 -378 -385q-377 0 -377 385zM170 2066l202 198h249l203 -198h-177l-151 102l-150 -102h-176z" />
<glyph unicode="&#xdc;" horiz-adv-x="995" d="M120 348v1619h195v-1619q0 -193 182 -193q183 0 183 193v1619h195v-1619q0 -384 -378 -385q-377 0 -377 385zM212 2085v150h152v-150h-152zM630 2085v150h153v-150h-153z" />
<glyph unicode="&#xdd;" horiz-adv-x="982" d="M40 1965h205l245 -970l245 970h207l-354 -1140v-828h-195v828zM357 2065l217 199h186v-31l-262 -168h-141z" />
<glyph unicode="&#xde;" horiz-adv-x="958" d="M130 -340v2315h195v-346h149q5 0 17 -1h23q344 0 344 -383v-312q0 -282 -249 -364q-62 -20 -184 -20h-100v-889h-195zM325 739h119q74 0 106 13q113 48 113 181v312q0 193 -181 193h-157v-699z" />
<glyph unicode="&#xdf;" horiz-adv-x="995" d="M130 3v1585q0 383 377 383q378 0 378 -383v-312q0 -174 -228 -289q228 -115 228 -288v-537q0 -382 -324 -382v189q129 0 129 193v537q0 133 -113 180q-34 13 -107 13h-145v-889h-195zM325 1083h145q73 0 106 12q114 44 114 181v312q0 192 -182 193h-2q-181 0 -181 -193 v-505z" />
<glyph unicode="&#xe0;" horiz-adv-x="988" d="M40 -3l89 591l204 1141h321l203 -1137l91 -595h-198l-58 387h-396l-59 -387h-197zM225 2000v31h186l217 -199h-141zM319 552h347l-173 1030z" />
<glyph unicode="&#xe1;" horiz-adv-x="988" d="M40 -3l89 591l204 1141h321l203 -1137l91 -595h-198l-58 387h-396l-59 -387h-197zM319 552h347l-173 1030zM360 1832l217 199h186v-31l-262 -168h-141z" />
<glyph unicode="&#xe2;" horiz-adv-x="988" d="M40 -3l89 591l204 1141h321l203 -1137l91 -595h-198l-58 387h-396l-59 -387h-197zM167 1833l202 198h249l203 -198h-177l-151 102l-150 -102h-176zM319 552h347l-173 1030z" />
<glyph unicode="&#xe3;" horiz-adv-x="988" d="M40 -3l89 591l204 1141h321l203 -1137l91 -595h-198l-58 387h-396l-59 -387h-197zM179 1857l23 46q61 124 153 129h6q61 0 163 -63q61 -39 104 -39q45 0 71 39l26 42l83 -55l-27 -44q-58 -93 -139 -97h-6q-60 0 -161 64q-73 46 -95 49h-7q-48 0 -85 -73l-22 -45zM319 552 h347l-173 1030z" />
<glyph unicode="&#xe4;" horiz-adv-x="988" d="M40 -3l89 591l204 1141h321l203 -1137l91 -595h-198l-58 387h-396l-59 -387h-197zM208 1852v150h152v-150h-152zM319 552h347l-173 1030zM626 1852v150h153v-150h-153z" />
<glyph unicode="&#xe5;" horiz-adv-x="988" d="M40 -3l89 591l204 1141h30q-44 44 -44 132q0 174 174 174q175 0 175 -174q0 -88 -45 -132h31l203 -1137l91 -595h-198l-58 387h-396l-59 -387h-197zM319 552h347l-173 1030zM379 1861q0 -115 114 -115q115 0 115 115q0 114 -115 114q-114 0 -114 -114z" />
<glyph unicode="&#xe6;" horiz-adv-x="1284" d="M40 -3l89 591l204 1141h871v-168h-476v-614h410v-168h-410v-614h476v-168h-671v387h-237l-59 -387h-197zM319 552h214v792l-40 238z" />
<glyph unicode="&#xe7;" horiz-adv-x="965" d="M110 301v1116q0 337 377 337q378 0 378 -337v-200h-195v200q0 168 -182 169h-2q-181 0 -181 -169v-1116q0 -169 182 -169q183 0 183 169v200h195v-200q0 -337 -378 -338q-24 0 -46 1l-17 -56q53 31 97 31q8 0 18 -2q49 -7 68 -31t19 -68v-60q0 -93 -98 -101 q-17 -2 -39 -2q-12 0 -23 1q-117 3 -117 101h75q0 -56 64 -56q63 0 63 57v60q0 58 -60 61h-3q-48 0 -57 -22h-72l18 94q-267 45 -267 330z" />
<glyph unicode="&#xe8;" horiz-adv-x="881" d="M130 -3v1732h671v-168h-476v-614h410v-168h-410v-614h476v-168h-671zM197 2000v31h186l217 -199h-141z" />
<glyph unicode="&#xe9;" horiz-adv-x="881" d="M130 -3v1732h671v-168h-476v-614h410v-168h-410v-614h476v-168h-671zM331 1832l217 199h186v-31l-262 -168h-141z" />
<glyph unicode="&#xea;" horiz-adv-x="881" d="M130 -3v1732h671v-168h-476v-614h410v-168h-410v-614h476v-168h-671zM139 1833l202 198h249l203 -198h-177l-151 102l-150 -102h-176z" />
<glyph unicode="&#xeb;" horiz-adv-x="881" d="M130 -3v1732h671v-168h-476v-614h410v-168h-410v-614h476v-168h-671zM180 1852v150h152v-150h-152zM598 1852v150h153v-150h-153z" />
<glyph unicode="&#xec;" horiz-adv-x="426" d="M-36 2000v31h186l217 -199h-141zM135 3v1723h195v-1723h-195z" />
<glyph unicode="&#xed;" horiz-adv-x="426" d="M98 1832l217 199h186v-31l-262 -168h-141zM135 3v1723h195v-1723h-195z" />
<glyph unicode="&#xee;" horiz-adv-x="426" d="M-94 1833l202 198h249l203 -198h-177l-151 102l-150 -102h-176zM136 3v1723h195v-1723h-195z" />
<glyph unicode="&#xef;" horiz-adv-x="426" d="M-53 1852v150h152v-150h-152zM135 3v1723h195v-1723h-195zM365 1852v150h153v-150h-153z" />
<glyph unicode="&#xf0;" horiz-adv-x="995" d="M120 381v386q0 362 319 362q93 0 241 -118q0 385 -141 608l-233 -197l-80 94l228 191q-131 80 -210 110l43 139q157 -46 295 -143l167 141l79 -94l-156 -130q203 -270 203 -673v-676q0 -384 -377 -384q-378 0 -378 384zM315 381q0 -192 183 -192q182 0 182 192v386 q0 186 -153 193q-17 1 -34 1q-66 0 -101 -16q-77 -33 -77 -178v-386z" />
<glyph unicode="&#xf1;" horiz-adv-x="1015" d="M130 -3v1732h205l377 -1406v1402l173 3v-1731h-205l-366 1376v-1376h-184zM193 1857l23 46q61 124 153 129h6q61 0 163 -63q61 -39 104 -39q45 0 71 39l26 42l83 -55l-27 -44q-58 -93 -139 -97h-6q-60 0 -161 64q-73 46 -95 49h-7q-48 0 -85 -73l-22 -45z" />
<glyph unicode="&#xf2;" d="M110 301v1116q0 337 377 337q378 0 378 -337v-1116q0 -337 -378 -338q-377 0 -377 338zM219 2000v31h186l217 -199h-141zM305 301q0 -169 182 -169q183 0 183 169v1116q0 168 -182 169h-2q-181 0 -181 -169v-1116z" />
<glyph unicode="&#xf3;" d="M110 301v1116q0 337 377 337q378 0 378 -337v-1116q0 -337 -378 -338q-377 0 -377 338zM305 301q0 -169 182 -169q183 0 183 169v1116q0 168 -182 169h-2q-181 0 -181 -169v-1116zM353 1832l217 199h186v-31l-262 -168h-141z" />
<glyph unicode="&#xf4;" d="M110 301v1116q0 337 377 337q378 0 378 -337v-1116q0 -337 -378 -338q-377 0 -377 338zM161 1833l202 198h249l203 -198h-177l-151 102l-150 -102h-176zM305 301q0 -169 182 -169q183 0 183 169v1116q0 168 -182 169h-2q-181 0 -181 -169v-1116z" />
<glyph unicode="&#xf5;" d="M110 301v1116q0 337 377 337q378 0 378 -337v-1116q0 -337 -378 -338q-377 0 -377 338zM173 1857l23 46q61 124 153 129h6q61 0 163 -63q61 -39 104 -39q45 0 71 39l26 42l83 -55l-27 -44q-58 -93 -139 -97h-6q-60 0 -161 64q-73 46 -95 49h-7q-48 0 -85 -73l-22 -45z M305 301q0 -169 182 -169q183 0 183 169v1116q0 168 -182 169h-2q-181 0 -181 -169v-1116z" />
<glyph unicode="&#xf6;" d="M110 301v1116q0 337 377 337q378 0 378 -337v-1116q0 -337 -378 -338q-377 0 -377 338zM202 1852v150h152v-150h-152zM305 301q0 -169 182 -169q183 0 183 169v1116q0 168 -182 169h-2q-181 0 -181 -169v-1116zM620 1852v150h153v-150h-153z" />
<glyph unicode="&#xf7;" horiz-adv-x="987" d="M120 912v142h747v-142h-747zM374 333v240h239v-240h-239zM374 1395v239h239v-239h-239z" />
<glyph unicode="&#xf8;" d="M110 301v1116q0 337 377 337q50 0 94 -6l21 104h144l-29 -145q148 -79 148 -290v-1116q0 -337 -378 -338q-63 0 -116 10l-18 -90h-144l28 140q-127 82 -127 278zM305 364l243 1216q-27 6 -60 6h-2q-181 0 -181 -169v-1053zM405 143q35 -11 82 -11q183 0 183 169v1116 q0 21 -3 40z" />
<glyph unicode="&#xf9;" horiz-adv-x="995" d="M120 302v1424h195v-1424q0 -170 182 -170q183 0 183 170v1424h195v-1424q0 -338 -378 -339q-377 0 -377 339zM229 2000v31h186l217 -199h-141z" />
<glyph unicode="&#xfa;" horiz-adv-x="995" d="M120 302v1424h195v-1424q0 -170 182 -170q183 0 183 170v1424h195v-1424q0 -338 -378 -339q-377 0 -377 339zM363 1832l217 199h186v-31l-262 -168h-141z" />
<glyph unicode="&#xfb;" horiz-adv-x="995" d="M120 302v1424h195v-1424q0 -170 182 -170q183 0 183 170v1424h195v-1424q0 -338 -378 -339q-377 0 -377 339zM171 1833l202 198h249l203 -198h-177l-151 102l-150 -102h-176z" />
<glyph unicode="&#xfc;" horiz-adv-x="995" d="M120 302v1424h195v-1424q0 -170 182 -170q183 0 183 170v1424h195v-1424q0 -338 -378 -339q-377 0 -377 339zM212 1852v150h152v-150h-152zM630 1852v150h153v-150h-153z" />
<glyph unicode="&#xfd;" horiz-adv-x="982" d="M40 1729h205l245 -854l245 854h207l-354 -1003v-729h-195v729zM357 1832l217 199h186v-31l-262 -168h-141z" />
<glyph unicode="&#xfe;" horiz-adv-x="950" d="M130 -340v2315h195v-346h149q5 0 17 -1h23q344 0 344 -383v-312q0 -282 -249 -364q-62 -20 -184 -20h-100v-889h-195zM325 739h119q74 0 106 13q113 48 113 181v312q0 193 -181 193h-157v-699z" />
<glyph unicode="&#xff;" horiz-adv-x="982" d="M40 1729h205l245 -854l245 854h207l-354 -1003v-729h-195v729zM206 1852v150h152v-150h-152zM624 1852v150h153v-150h-153z" />
<glyph unicode="&#x2c6;" horiz-adv-x="985" d="M166 1833l202 198h249l203 -198h-177l-151 102l-150 -102h-176z" />
<glyph unicode="&#x2dc;" horiz-adv-x="889" d="M130 1857l23 46q61 124 153 129h6q61 0 163 -63q61 -39 104 -39q45 0 71 39l26 42l83 -55l-27 -44q-58 -93 -139 -97h-6q-60 0 -161 64q-73 46 -95 49h-7q-48 0 -85 -73l-22 -45z" />
<glyph unicode="&#x2000;" horiz-adv-x="1156" />
<glyph unicode="&#x2001;" horiz-adv-x="2312" />
<glyph unicode="&#x2002;" horiz-adv-x="1156" />
<glyph unicode="&#x2003;" horiz-adv-x="2312" />
<glyph unicode="&#x2004;" horiz-adv-x="770" />
<glyph unicode="&#x2005;" horiz-adv-x="578" />
<glyph unicode="&#x2006;" horiz-adv-x="385" />
<glyph unicode="&#x2007;" horiz-adv-x="385" />
<glyph unicode="&#x2008;" horiz-adv-x="289" />
<glyph unicode="&#x2009;" horiz-adv-x="462" />
<glyph unicode="&#x200a;" horiz-adv-x="128" />
<glyph unicode="&#x2010;" horiz-adv-x="721" d="M50 887v141h621v-141h-621z" />
<glyph unicode="&#x2011;" horiz-adv-x="721" d="M50 887v141h621v-141h-621z" />
<glyph unicode="&#x2012;" horiz-adv-x="721" d="M50 887v141h621v-141h-621z" />
<glyph unicode="&#x2013;" horiz-adv-x="1128" d="M50 887v141h1016v-141h-1016z" />
<glyph unicode="&#x2014;" horiz-adv-x="2056" d="M50 887v141h1971v-141h-1971z" />
<glyph unicode="&#x2018;" horiz-adv-x="472" d="M130 1344v245l100 341h93l-61 -346h133v-240h-265z" />
<glyph unicode="&#x2019;" horiz-adv-x="525" d="M130 1690v240h265v-245l-99 -341h-94l62 346h-134z" />
<glyph unicode="&#x201a;" horiz-adv-x="472" d="M120 52v240h266v-244l-100 -342h-93l62 346h-135z" />
<glyph unicode="&#x201c;" horiz-adv-x="1062" d="M130 1344v245l100 341h93l-61 -346h133v-240h-265zM620 1344v245l100 341h93l-61 -346h133v-240h-265z" />
<glyph unicode="&#x201d;" horiz-adv-x="1115" d="M130 1690v240h265v-245l-99 -341h-94l62 346h-134zM620 1690v240h265v-245l-99 -341h-94l62 346h-134z" />
<glyph unicode="&#x201e;" horiz-adv-x="1115" d="M130 53v240h265v-245l-99 -341h-94l62 346h-134zM620 53v240h265v-245l-99 -341h-94l62 346h-134z" />
<glyph unicode="&#x2022;" horiz-adv-x="924" d="M130 983q0 139 96 235q98 98 236 98t236 -98q96 -96 96 -235q0 -138 -96 -236q-98 -96 -236 -96t-236 96q-96 98 -96 236z" />
<glyph unicode="&#x2026;" horiz-adv-x="2063" d="M120 19v239h240v-239h-240zM803 19v239h240v-239h-240zM1486 19v239h240v-239h-240z" />
<glyph unicode="&#x202f;" horiz-adv-x="462" />
<glyph unicode="&#x2039;" horiz-adv-x="718" d="M130 1002l458 418v-207l-265 -224l265 -218v-195z" />
<glyph unicode="&#x203a;" horiz-adv-x="718" d="M130 576v195l266 218l-266 224v207l458 -418z" />
<glyph unicode="&#x205f;" horiz-adv-x="578" />
<glyph unicode="&#x20ac;" horiz-adv-x="1044" d="M30 781v63h149v274h-149v62h149v435q0 384 377 384q378 0 378 -384v-226h-195v226q0 192 -182 192h-2q-181 0 -181 -192v-435h404v-62h-404v-274h404v-63h-404v-434q0 -192 182 -192q183 0 183 192v227h195v-227q0 -383 -378 -383q-377 0 -377 383v434h-149z" />
<glyph unicode="&#x2122;" horiz-adv-x="1057" d="M35 1087v76h339v-76h-126v-711h-87v711h-126zM221 376v787h92l177 -634l175 634h92v-787h-82v636l-157 -636h-53l-161 631v-631h-83z" />
<glyph unicode="&#x25fc;" horiz-adv-x="1730" d="M0 0v1730h1730v-1730h-1730z" />
</font>
</defs>
</svg>
